# xmcd
#
# Track frame offsets:
#	150
#	18795
#	46620
#	61065
#	83788
#	105612
#	125651
#	150239
#	168419
#	201610
#	219684
#	261083
#	293293
#	309567
#
# Disc length: 4510 seconds
#
# Revision: 0
# Processed by: cddbd v1.5.1PL2 Copyright (c) Steve Scherf et al.
# Submitted via: dBpowerAMP V4.0
#
DISCID=b4119c0e
DTITLE=HippyMuzicGroup - HighTimeZ
DYEAR=2006
DGENRE=Blues
TTITLE0=Dance To The Music (w_ will.i.am)
TTITLE1=Neville Brothers
TTITLE2=Snowy White
TTITLE3=Lucky Peterson
TTITLE4=Vargas Blues Band
TTITLE5=Raros Peinados Nuevos
TTITLE6=Nothing To Say
TTITLE7=Kim Lembo and Mark Doyle
TTITLE8=Joe Bonamassa
TTITLE9=Working Blues Band
TTITLE10=Purple Rain (Al Pitrelli, Andy Timmons, Brad Gillis, John Petrucci)
TTITLE11=Memphis Underground
TTITLE12=Taj Mahal
TTITLE13=Baba Blues
EXTD=
EXTT0=
EXTT1=
EXTT2=
EXTT3=
EXTT4=
EXTT5=
EXTT6=
EXTT7=
EXTT8=
EXTT9=
EXTT10=
EXTT11=
EXTT12=
EXTT13=
PLAYORDER=
